<?xml version="1.0" standalone="no"?>
<!DOCTYPE svg PUBLIC "-//W3C//DTD SVG 20010904//EN"
 "http://www.w3.org/TR/2001/REC-SVG-20010904/DTD/svg10.dtd">
<svg version="1.0" xmlns="http://www.w3.org/2000/svg"
 width="512.000000pt" height="512.000000pt" viewBox="0 0 512.000000 512.000000"
 preserveAspectRatio="xMidYMid meet">
<metadata>
Created by potrace 1.11, written by Peter Selinger 2001-2013
</metadata>
<g transform="translate(0.000000,512.000000) scale(0.100000,-0.100000)"
fill="#000000" stroke="none">
<path d="M0 2560 l0 -2560 2560 0 2560 0 0 2560 0 2560 -2560 0 -2560 0 0
-2560z m1828 943 l-3 -1128 -132 -3 -133 -3 0 1131 0 1130 135 0 135 0 -2
-1127z m1581 1092 c64 -35 116 -99 136 -168 23 -77 22 -1792 -1 -1859 -31 -92
-119 -166 -222 -187 -35 -7 -266 -11 -692 -11 l-640 0 0 1130 0 1131 683 -3
682 -3 54 -30z m-799 -2540 c0 -85 -2 -155 -4 -155 -3 0 -57 25 -120 57 l-116
56 -114 -56 c-63 -30 -117 -53 -120 -50 -8 9 -8 288 1 296 3 4 111 7 240 7
l233 0 0 -155z m-368 -645 l80 0 -7 -97 -6 -98 62 95 c34 52 63 97 65 99 5 6
130 0 182 -7 l43 -7 -105 -145 -105 -145 19 -30 c58 -98 150 -264 150 -273 0
-5 -30 -15 -67 -21 -38 -7 -82 -14 -99 -17 -29 -5 -33 -1 -95 87 l-64 92 -3
-95 -3 -95 -86 -6 c-47 -4 -90 -4 -94 -1 -12 7 2 658 15 666 6 4 17 6 24 3 8
-3 50 -5 94 -5z m-776 -36 c48 -23 63 -38 82 -74 39 -79 23 -161 -39 -199 -28
-17 -29 -20 -12 -25 31 -10 80 -68 91 -108 21 -77 -15 -144 -98 -181 -89 -40
-342 -31 -397 14 -10 9 -13 70 -13 285 0 312 -9 282 97 309 35 9 93 13 144 12
72 -3 96 -8 145 -33z m2417 16 c157 -59 199 -259 73 -355 -40 -31 -141 -65
-192 -65 l-33 0 -3 -102 -3 -103 -100 0 -100 0 -3 301 c-2 233 1 304 10 312
44 35 268 43 351 12z m993 -7 c135 -71 166 -244 62 -348 l-41 -40 48 -88 c26
-49 45 -90 43 -92 -6 -7 -147 -35 -171 -35 -19 0 -27 14 -53 88 -27 76 -34 87
-56 90 -23 3 -26 -1 -31 -50 -4 -29 -7 -70 -7 -90 l0 -38 -96 0 -96 0 7 293
c4 160 11 296 15 301 20 21 120 35 225 33 90 -2 118 -7 151 -24z m-4487 7
c145 -24 222 -105 237 -248 15 -140 -64 -272 -196 -329 -46 -19 -170 -43 -225
-43 -78 0 -75 -8 -75 179 0 91 3 223 7 293 l6 127 51 10 c28 6 67 12 86 14 19
2 37 4 40 5 3 1 34 -3 69 -8z m677 -67 c-4 -43 -9 -79 -11 -81 -1 -2 -44 -6
-94 -9 -87 -6 -91 -7 -91 -29 0 -23 4 -24 59 -24 33 0 63 -5 66 -11 4 -5 4
-36 0 -68 l-7 -59 -64 -7 c-63 -6 -64 -7 -64 -36 l0 -29 91 0 92 0 -8 -92 c-4
-51 -8 -94 -10 -96 -2 -2 -87 -6 -190 -9 l-186 -6 6 304 c4 167 8 310 10 317
3 9 53 12 206 12 l202 0 -7 -77z m1014 -18 l0 -95 -64 0 -64 0 -5 -32 c-3 -18
-11 -109 -18 -203 -6 -93 -14 -173 -18 -177 -4 -4 -46 -11 -94 -14 l-87 -7 0
207 0 206 -65 0 -65 0 0 98 c0 54 3 102 7 105 3 4 111 7 240 7 l233 0 0 -95z
m990 21 c0 -41 -4 -78 -10 -81 -5 -3 -48 -9 -95 -12 -47 -3 -85 -9 -85 -14 0
-4 -3 -14 -6 -23 -5 -12 6 -16 58 -18 l63 -3 0 -65 0 -65 -67 -9 c-66 -9 -68
-10 -68 -38 l0 -28 90 0 90 0 0 -82 c0 -46 -4 -89 -9 -96 -6 -11 -51 -14 -192
-15 l-184 -2 3 215 c1 118 5 259 9 313 l6 97 198 0 199 0 0 -74z m430 0 c0
-41 -4 -78 -10 -81 -5 -3 -48 -9 -94 -12 -78 -5 -85 -7 -89 -29 -4 -23 -2 -24
59 -24 l64 0 0 -69 0 -69 -70 -7 c-69 -7 -70 -7 -70 -36 l0 -29 90 0 91 0 -3
-92 -3 -93 -75 -8 c-41 -4 -126 -6 -189 -5 l-115 3 2 210 c1 116 5 256 9 313
l6 102 198 0 199 0 0 -74z m966 -3 c-4 -43 -9 -79 -11 -81 -1 -2 -44 -6 -94
-9 -87 -6 -91 -7 -91 -29 0 -23 4 -24 59 -24 33 0 63 -5 66 -11 4 -5 4 -36 0
-68 l-7 -59 -64 -7 c-63 -6 -64 -7 -64 -36 l0 -29 91 0 92 0 -8 -92 c-4 -51
-8 -94 -10 -96 -2 -2 -87 -6 -190 -9 l-187 -6 7 304 c4 167 8 310 10 317 3 9
53 12 206 12 l202 0 -7 -77z"/>
<path d="M2356 3989 c-33 -26 -35 -70 -4 -99 21 -19 33 -20 425 -20 l404 0 24
25 c14 13 25 33 25 45 0 12 -11 32 -25 45 l-24 25 -399 0 c-389 0 -400 -1
-426 -21z"/>
<path d="M2350 3650 c-29 -29 -26 -74 6 -99 26 -20 37 -21 424 -21 364 0 400
1 418 18 32 26 37 63 12 95 l-21 27 -410 0 c-396 0 -410 -1 -429 -20z"/>
<path d="M1290 1170 c0 -55 15 -64 58 -34 42 29 23 84 -30 84 -27 0 -28 -2
-28 -50z"/>
<path d="M1290 1003 c0 -16 -3 -38 -6 -50 -5 -20 -2 -23 20 -23 43 0 66 17 66
50 0 31 -22 50 -59 50 -16 0 -21 -6 -21 -27z"/>
<path d="M3740 1221 c-6 -12 -10 -43 -8 -69 3 -46 4 -47 33 -44 41 5 65 29 65
67 0 36 -12 50 -52 60 -21 5 -29 2 -38 -14z"/>
<path d="M4690 1203 c0 -32 -3 -68 -6 -80 -5 -20 -2 -23 20 -23 34 0 82 24 90
45 21 55 -15 115 -70 115 l-34 0 0 -57z"/>
<path d="M346 1168 c-12 -97 -16 -217 -9 -221 5 -3 23 4 41 15 79 49 92 175
25 228 -39 30 -51 25 -57 -22z"/>
</g>
</svg>
